# xmcd
#
# Track frame offsets:
# 182
# 17160
# 30160
# 42922
# 56112
# 70770
# 86990
# 99420
# 115225
# 126777
# 143905
# 157885
# 170417
# 181930
#
# Disc length: 2616 seconds
#
#
# Revision: 3
# Processed by: cddbd v1.5.1PL2 Copyright (c) Steve Scherf et al.
# Submitted via: FreeRIP 2.945 
#
DISCID=b40a360e
DTITLE=Os Incríveis - Os Incríveis E Seus Maiores Sucessos
DYEAR=1994
DGENRE=Acoustic
TTITLE0=O Milionário
TTITLE1=Molambo
TTITLE2=O Vagabundo
TTITLE3=Perdi Você
TTITLE4=Sem Vergonheira
TTITLE5=Czardas
TTITLE6=Israel
TTITLE7=Era Um Garoto Que Como Eu Amava Os Beatles E Os Rolling Stones
TTITLE8=Minha Oração
TTITLE9=Vendedor De Bananas
TTITLE10=O Homem Do Braço De Ouro
TTITLE11=Quando Vejo O Sol
TTITLE12=Vendi Os Bois
TTITLE13=Eu Te Amo, Meu Brasil
EXTD=
EXTT0=
EXTT1=
EXTT2=
EXTT3=
EXTT4=
EXTT5=
EXTT6=
EXTT7=
EXTT8=
EXTT9=
EXTT10=
EXTT11=
EXTT12=
EXTT13=
PLAYORDER=
